<svg width="32" height="33" viewBox="0 0 32 33" fill="none" xmlns="http://www.w3.org/2000/svg">
<path d="M9.62799 3.375H7.13424C4.25986 3.375 2.75049 4.88437 2.75049 7.74563V10.2394C2.75049 13.1006 4.25986 14.61 7.12111 14.61H9.61486C12.4761 14.61 13.9855 13.1006 13.9855 10.2394V7.74563C13.9986 4.88437 12.4892 3.375 9.62799 3.375Z" fill="#0072B5"/>
<path d="M24.6295 3.375H22.1358C19.2745 3.375 17.7651 4.88437 17.7651 7.74563V10.2394C17.7651 13.1006 19.2745 14.61 22.1358 14.61H24.6295C27.4908 14.61 29.0001 13.1006 29.0001 10.2394V7.74563C29.0001 4.88437 27.4908 3.375 24.6295 3.375Z" fill="#0072B5"/>
<path d="M24.6295 18.3769H22.1358C19.2745 18.3769 17.7651 19.8863 17.7651 22.7475V25.2413C17.7651 28.1025 19.2745 29.6119 22.1358 29.6119H24.6295C27.4908 29.6119 29.0001 28.1025 29.0001 25.2413V22.7475C29.0001 19.8863 27.4908 18.3769 24.6295 18.3769Z" fill="#0072B5"/>
<path d="M9.62799 18.3769H7.13424C4.25986 18.3769 2.75049 19.8863 2.75049 22.7475V25.2413C2.75049 28.1156 4.25986 29.625 7.12111 29.625H9.61486C12.4761 29.625 13.9855 28.1156 13.9855 25.2544V22.7606C13.9986 19.8863 12.4892 18.3769 9.62799 18.3769Z" fill="#0072B5"/>
</svg>
