<svg width="43" height="43" viewBox="0 0 43 43" fill="none" xmlns="http://www.w3.org/2000/svg">
<path d="M42.1802 20.9407C42.1424 9.3681 32.747 0 21.1723 0C9.59335 0 0.200047 9.3681 0.162256 20.9407L0.160156 20.8861V21.1213L0.162256 21.073C0.197948 32.6477 9.59125 42.02 21.1723 42.02C32.7491 42.02 42.1424 32.6519 42.1802 21.0793L42.1823 21.1339V20.8861L42.1802 20.9407ZM15.4468 30.5629C10.1791 30.5629 5.89817 26.2819 5.89817 21.0121C5.89817 15.7423 10.1791 11.4613 15.4468 11.4613C18.0293 11.4613 20.1876 12.4082 21.842 13.9556L19.1231 16.5905C18.4408 15.9417 17.2356 15.1775 15.4468 15.1775C12.287 15.1775 9.70882 17.804 9.70882 21.0247C9.70882 24.2433 12.2891 26.8698 15.4468 26.8698C19.1042 26.8698 20.4521 24.3378 20.6999 22.8387H15.4426V19.2737H24.3761C24.5147 19.8742 24.6176 20.4368 24.6176 21.2305C24.6176 26.6829 20.9602 30.5629 15.4468 30.5629ZM37.4037 21.9653H33.5847V25.7843H30.7209V21.9653H26.8998V19.1015H30.7209V15.2804H33.5847V19.1015H37.4037V21.9653Z" fill="black"/>
</svg>
