<svg width="46" height="41" viewBox="0 0 46 41" fill="none" xmlns="http://www.w3.org/2000/svg">
<path d="M10.6865 32.25V11.25M35.1865 0.749969V7.74997V0.749969ZM35.1865 32.25V14.75V32.25ZM22.9365 0.749969V21.75V0.749969ZM22.9365 32.25V28.75V32.25ZM10.6865 0.749969V4.24997V0.749969Z" stroke="#F71731" stroke-width="2.625" stroke-linecap="round"/>
<g filter="url(#filter0_d_293_4919)">
<path d="M31.6865 10.8125C31.6865 12.7455 33.2535 14.3125 35.1865 14.3125C37.1195 14.3125 38.6865 12.7455 38.6865 10.8125C38.6865 8.87947 37.1195 7.31247 35.1865 7.31247C33.2535 7.31247 31.6865 8.87947 31.6865 10.8125Z" stroke="#F71731" stroke-width="2.625" stroke-linecap="round" shape-rendering="crispEdges"/>
</g>
<g filter="url(#filter1_d_293_4919)">
<path d="M19.4365 25.25C19.4365 27.183 21.0035 28.75 22.9365 28.75C24.8695 28.75 26.4365 27.183 26.4365 25.25C26.4365 23.317 24.8695 21.75 22.9365 21.75C21.0035 21.75 19.4365 23.317 19.4365 25.25Z" stroke="#F71731" stroke-width="2.625" stroke-linecap="round" shape-rendering="crispEdges"/>
</g>
<g filter="url(#filter2_d_293_4919)">
<path d="M7.1875 7.74994C7.1875 9.68294 8.7545 11.2499 10.6875 11.2499C12.6205 11.2499 14.1875 9.68294 14.1875 7.74994C14.1875 5.81694 12.6205 4.24994 10.6875 4.24994C8.7545 4.24994 7.1875 5.81694 7.1875 7.74994Z" stroke="#F71731" stroke-width="2.625" stroke-linecap="round" shape-rendering="crispEdges"/>
</g>
<defs>
<filter id="filter0_d_293_4919" x="25.124" y="5.99997" width="20.125" height="20.125" filterUnits="userSpaceOnUse" color-interpolation-filters="sRGB">
<feFlood flood-opacity="0" result="BackgroundImageFix"/>
<feColorMatrix in="SourceAlpha" type="matrix" values="0 0 0 0 0 0 0 0 0 0 0 0 0 0 0 0 0 0 127 0" result="hardAlpha"/>
<feOffset dy="5.25"/>
<feGaussianBlur stdDeviation="2.625"/>
<feComposite in2="hardAlpha" operator="out"/>
<feColorMatrix type="matrix" values="0 0 0 0 0 0 0 0 0 0 0 0 0 0 0 0 0 0 0.25 0"/>
<feBlend mode="normal" in2="BackgroundImageFix" result="effect1_dropShadow_293_4919"/>
<feBlend mode="normal" in="SourceGraphic" in2="effect1_dropShadow_293_4919" result="shape"/>
</filter>
<filter id="filter1_d_293_4919" x="12.874" y="20.4375" width="20.125" height="20.125" filterUnits="userSpaceOnUse" color-interpolation-filters="sRGB">
<feFlood flood-opacity="0" result="BackgroundImageFix"/>
<feColorMatrix in="SourceAlpha" type="matrix" values="0 0 0 0 0 0 0 0 0 0 0 0 0 0 0 0 0 0 127 0" result="hardAlpha"/>
<feOffset dy="5.25"/>
<feGaussianBlur stdDeviation="2.625"/>
<feComposite in2="hardAlpha" operator="out"/>
<feColorMatrix type="matrix" values="0 0 0 0 0 0 0 0 0 0 0 0 0 0 0 0 0 0 0.25 0"/>
<feBlend mode="normal" in2="BackgroundImageFix" result="effect1_dropShadow_293_4919"/>
<feBlend mode="normal" in="SourceGraphic" in2="effect1_dropShadow_293_4919" result="shape"/>
</filter>
<filter id="filter2_d_293_4919" x="0.625" y="2.93744" width="20.125" height="20.125" filterUnits="userSpaceOnUse" color-interpolation-filters="sRGB">
<feFlood flood-opacity="0" result="BackgroundImageFix"/>
<feColorMatrix in="SourceAlpha" type="matrix" values="0 0 0 0 0 0 0 0 0 0 0 0 0 0 0 0 0 0 127 0" result="hardAlpha"/>
<feOffset dy="5.25"/>
<feGaussianBlur stdDeviation="2.625"/>
<feComposite in2="hardAlpha" operator="out"/>
<feColorMatrix type="matrix" values="0 0 0 0 0 0 0 0 0 0 0 0 0 0 0 0 0 0 0.25 0"/>
<feBlend mode="normal" in2="BackgroundImageFix" result="effect1_dropShadow_293_4919"/>
<feBlend mode="normal" in="SourceGraphic" in2="effect1_dropShadow_293_4919" result="shape"/>
</filter>
</defs>
</svg>
