<svg width="16" height="16" viewBox="0 0 16 16" fill="none" xmlns="http://www.w3.org/2000/svg">
<path d="M10.8571 1.38315e-07C10.0541 -0.000184032 9.26209 0.187752 8.54471 0.548748C7.82733 0.909744 7.20449 1.43376 6.72609 2.07881C6.2477 2.72386 5.92705 3.472 5.78984 4.26328C5.65264 5.05456 5.7027 5.86698 5.936 6.63543L0 12.5714V16H3.42857L9.36457 10.064C10.0719 10.2787 10.8173 10.3384 11.5498 10.239C12.2824 10.1396 12.9848 9.88347 13.6094 9.48802C14.234 9.09258 14.766 8.56713 15.1691 7.94749C15.5723 7.32785 15.8371 6.62858 15.9456 5.89733C16.054 5.16609 16.0035 4.42006 15.7976 3.71008C15.5916 3.00011 15.235 2.34288 14.7521 1.78318C14.2692 1.22348 13.6713 0.77447 12.9991 0.466749C12.327 0.159028 11.5964 -0.000171299 10.8571 1.38315e-07ZM10.8571 9.14286C10.4637 9.14264 10.0725 9.08449 9.696 8.97029L9.04057 8.77143L8.55657 9.25543L6.73886 11.0731L5.95086 10.2857L5.14286 11.0937L5.93086 11.8817L5.02457 12.788L4.23657 12L3.42857 12.808L4.21657 13.596L2.95543 14.8571H1.14286V13.0446L6.744 7.44343L7.22857 6.95943L7.02972 6.304C6.78548 5.49885 6.80134 4.63719 7.07506 3.84158C7.34877 3.04597 7.8664 2.35693 8.55431 1.87247C9.24222 1.38801 10.0654 1.13281 10.9067 1.14316C11.748 1.15351 12.5646 1.42889 13.2404 1.93012C13.9162 2.43136 14.4167 3.13293 14.6708 3.93503C14.9248 4.73713 14.9195 5.59892 14.6555 6.39782C14.3915 7.19671 13.8824 7.89203 13.2004 8.38486C12.5185 8.87768 11.6985 9.14293 10.8571 9.14286Z" fill="#0172B6"/>
</svg>
