<svg width="32" height="32" viewBox="0 0 32 32" fill="none" xmlns="http://www.w3.org/2000/svg">
<path d="M28.9375 12.25V20.125C28.9375 23.4063 28.2813 25.7031 26.8113 27.1863L18.4375 18.8125L28.5831 8.6669C28.8194 9.70378 28.9375 10.885 28.9375 12.25Z" stroke="#292D32" stroke-width="1.96875" stroke-linecap="round" stroke-linejoin="round"/>
<path d="M28.5831 8.66688L8.29186 28.9581C4.34124 28.0525 2.6875 25.3225 2.6875 20.125V12.25C2.6875 5.6875 5.3125 3.0625 11.875 3.0625H19.75C24.9475 3.0625 27.6775 4.71626 28.5831 8.66688Z" stroke="#292D32" stroke-width="1.96875" stroke-linecap="round" stroke-linejoin="round"/>
<path d="M26.8114 27.1863C25.3283 28.6563 23.0314 29.3125 19.7501 29.3125H11.8751C10.5101 29.3125 9.32887 29.1944 8.29199 28.9581L18.4376 18.8125L26.8114 27.1863Z" stroke="#292D32" stroke-width="1.96875" stroke-linecap="round" stroke-linejoin="round"/>
<path d="M8.25217 10.9113C9.14467 7.06563 14.9197 7.06563 15.8122 10.9113C16.3241 13.1688 14.9065 15.085 13.6597 16.2663C12.754 17.1325 11.3234 17.1325 10.4047 16.2663C9.15782 15.085 7.72717 13.1688 8.25217 10.9113Z" stroke="#292D32" stroke-width="1.96875"/>
<path d="M11.9991 11.8563H12.0109" stroke="#292D32" stroke-width="2.625" stroke-linecap="round" stroke-linejoin="round"/>
</svg>
