<svg width="18" height="18" viewBox="0 0 18 18" fill="none" xmlns="http://www.w3.org/2000/svg">
<path d="M16.2659 2.69362L14.0017 0.431575C13.7254 0.155197 13.3554 0 12.9643 0C12.5731 0 12.2032 0.153071 11.9268 0.431575L9.48827 2.86583C9.21189 3.1422 9.0567 3.51425 9.0567 3.90543C9.0567 4.29874 9.20977 4.66654 9.48827 4.94504L11.3932 6.85205C10.9592 7.86314 10.3357 8.7818 9.5563 9.55843C8.77607 10.3429 7.86402 10.9616 6.85205 11.3995L4.94717 9.49252C4.67079 9.21614 4.30087 9.06095 3.90969 9.06095C3.71674 9.06023 3.52559 9.09804 3.34744 9.17214C3.16929 9.24625 3.00772 9.35517 2.87221 9.49252L0.431575 11.9268C0.155197 12.2032 0 12.5752 0 12.9664C0 13.3597 0.153071 13.7275 0.431575 14.006L2.69362 16.268C3.16559 16.74 3.81614 17.01 4.4837 17.01C4.62189 17.01 4.75583 16.9994 4.89189 16.976C7.7067 16.5125 10.5002 15.0137 12.7559 12.7602C15.0095 10.5024 16.5061 7.70882 16.9739 4.89189C17.1078 4.09252 16.8399 3.26976 16.2659 2.69362ZM15.4665 4.6389C15.052 7.14543 13.7041 9.64559 11.6738 11.6759C9.64347 13.7062 7.14544 15.0541 4.6389 15.4687C4.32425 15.5218 4.0011 15.4155 3.7715 15.188L1.54984 12.9664L3.90544 10.6087L6.45236 13.1598L6.4715 13.179L6.93071 13.0089C8.32308 12.497 9.58748 11.6884 10.6363 10.6392C11.6851 9.59006 12.4932 8.32538 13.0047 6.93284L13.1747 6.47362L10.6065 3.90756L12.9621 1.54984L15.1838 3.7715C15.4134 4.0011 15.5197 4.32425 15.4665 4.6389Z" fill="#0172B6"/>
</svg>
