<svg width="26" height="26" viewBox="0 0 26 26" fill="none" xmlns="http://www.w3.org/2000/svg">
<path d="M17.6038 24.375C18.6509 24.375 19.4997 23.5262 19.4997 22.4791C19.4997 21.4321 18.6509 20.5833 17.6038 20.5833C16.5568 20.5833 15.708 21.4321 15.708 22.4791C15.708 23.5262 16.5568 24.375 17.6038 24.375Z" fill="#292D32"/>
<path d="M8.93783 24.375C9.98487 24.375 10.8337 23.5262 10.8337 22.4791C10.8337 21.4321 9.98487 20.5833 8.93783 20.5833C7.89079 20.5833 7.04199 21.4321 7.04199 22.4791C7.04199 23.5262 7.89079 24.375 8.93783 24.375Z" fill="#292D32"/>
<path opacity="0.4" d="M5.24365 4.26836L5.02699 6.92252C4.98366 7.43169 5.38449 7.85419 5.89366 7.85419H22.4795C22.9345 7.85419 23.3137 7.50751 23.3462 7.05251C23.487 5.13501 22.0245 3.57502 20.107 3.57502H6.81449C6.70615 3.09836 6.48948 2.64335 6.15365 2.26418C5.62282 1.69002 4.8645 1.35419 4.0845 1.35419H2.16699C1.72283 1.35419 1.35449 1.72252 1.35449 2.16669C1.35449 2.61085 1.72283 2.97919 2.16699 2.97919H4.052C4.38783 2.97919 4.702 3.12003 4.9295 3.35836C5.157 3.60753 5.26532 3.93252 5.24365 4.26836Z" fill="#292D32"/>
<path d="M22.2189 9.47919H5.60057C5.14557 9.47919 4.77723 9.82585 4.7339 10.27L4.3439 14.9825C4.19223 16.8242 5.6439 18.4167 7.4964 18.4167H19.5431C21.1681 18.4167 22.5981 17.0842 22.7172 15.4592L23.0747 10.4C23.1181 9.90169 22.7281 9.47919 22.2189 9.47919Z" fill="#292D32"/>
</svg>
