<svg width="134" height="23" viewBox="0 0 134 23" fill="none" xmlns="http://www.w3.org/2000/svg">
<path d="M16.0766 13.6354C15.8442 13.8606 15.7374 14.1863 15.7904 14.5057L16.588 18.92C16.6553 19.2941 16.4974 19.6728 16.1843 19.889C15.8774 20.1133 15.4692 20.1402 15.1345 19.9608L11.1608 17.8882C11.0226 17.8146 10.8692 17.7752 10.7121 17.7707H10.469C10.3847 17.7832 10.3021 17.8101 10.2268 17.8514L6.25209 19.9339C6.0556 20.0325 5.83309 20.0675 5.61507 20.0325C5.08392 19.9321 4.72952 19.426 4.81655 18.8922L5.61507 14.4779C5.66801 14.1558 5.56124 13.8283 5.32886 13.5995L2.08902 10.4593C1.81806 10.1964 1.72385 9.80161 1.84767 9.44542C1.96789 9.09012 2.27474 8.83083 2.64529 8.77251L7.10445 8.12562C7.44359 8.09062 7.74147 7.88426 7.89399 7.57921L9.85889 3.55072C9.90555 3.461 9.96566 3.37845 10.0383 3.30847L10.1191 3.24567C10.1613 3.19901 10.2097 3.16043 10.2635 3.12903L10.3613 3.09314L10.5139 3.03033H10.8916C11.2289 3.06533 11.5259 3.2672 11.6811 3.56866L13.6721 7.57921C13.8156 7.8726 14.0946 8.07627 14.4167 8.12562L18.8759 8.77251C19.2527 8.82634 19.5677 9.08653 19.6924 9.44542C19.8099 9.8052 19.7085 10.2 19.4322 10.4593L16.0766 13.6354Z" fill="#FBBF24"/>
<path d="M37.6098 13.6354C37.3774 13.8606 37.2706 14.1863 37.3236 14.5057L38.1212 18.92C38.1885 19.2941 38.0306 19.6728 37.7175 19.889C37.4106 20.1133 37.0024 20.1402 36.6677 19.9608L32.694 17.8882C32.5558 17.8146 32.4024 17.7752 32.2453 17.7707H32.0022C31.9179 17.7832 31.8353 17.8101 31.76 17.8514L27.7853 19.9339C27.5888 20.0325 27.3663 20.0675 27.1483 20.0325C26.6171 19.9321 26.2627 19.426 26.3498 18.8922L27.1483 14.4779C27.2012 14.1558 27.0944 13.8283 26.8621 13.5995L23.6222 10.4593C23.3513 10.1964 23.2571 9.80161 23.3809 9.44542C23.5011 9.09012 23.8079 8.83083 24.1785 8.77251L28.6376 8.12562C28.9768 8.09062 29.2747 7.88426 29.4272 7.57921L31.3921 3.55072C31.4388 3.461 31.4989 3.37845 31.5715 3.30847L31.6523 3.24567C31.6945 3.19901 31.7429 3.16043 31.7967 3.12903L31.8945 3.09314L32.0471 3.03033H32.4248C32.7621 3.06533 33.0591 3.2672 33.2143 3.56866L35.2053 7.57921C35.3488 7.8726 35.6278 8.07627 35.9499 8.12562L40.4091 8.77251C40.7859 8.82634 41.1009 9.08653 41.2256 9.44542C41.3431 9.8052 41.2417 10.2 40.9654 10.4593L37.6098 13.6354Z" fill="#FBBF24"/>
<path d="M59.143 13.6354C58.9106 13.8606 58.8038 14.1863 58.8568 14.5057L59.6544 18.92C59.7217 19.2941 59.5638 19.6728 59.2507 19.889C58.9438 20.1133 58.5356 20.1402 58.2009 19.9608L54.2272 17.8882C54.089 17.8146 53.9356 17.7752 53.7786 17.7707H53.5354C53.4511 17.7832 53.3685 17.8101 53.2932 17.8514L49.3185 19.9339C49.122 20.0325 48.8995 20.0675 48.6815 20.0325C48.1503 19.9321 47.7959 19.426 47.883 18.8922L48.6815 14.4779C48.7344 14.1558 48.6276 13.8283 48.3953 13.5995L45.1554 10.4593C44.8845 10.1964 44.7903 9.80161 44.9141 9.44542C45.0343 9.09012 45.3411 8.83083 45.7117 8.77251L50.1709 8.12562C50.51 8.09062 50.8079 7.88426 50.9604 7.57921L52.9253 3.55072C52.972 3.461 53.0321 3.37845 53.1047 3.30847L53.1855 3.24567C53.2277 3.19901 53.2761 3.16043 53.3299 3.12903L53.4277 3.09314L53.5803 3.03033H53.958C54.2953 3.06533 54.5923 3.2672 54.7475 3.56866L56.7385 7.57921C56.882 7.8726 57.161 8.07627 57.4832 8.12562L61.9423 8.77251C62.3191 8.82634 62.6341 9.08653 62.7588 9.44542C62.8763 9.8052 62.7749 10.2 62.4986 10.4593L59.143 13.6354Z" fill="#FBBF24"/>
<path d="M80.6762 13.6354C80.4438 13.8606 80.3371 14.1863 80.39 14.5057L81.1876 18.92C81.2549 19.2941 81.097 19.6728 80.7839 19.889C80.477 20.1133 80.0688 20.1402 79.7341 19.9608L75.7604 17.8882C75.6222 17.8146 75.4688 17.7752 75.3118 17.7707H75.0686C74.9843 17.7832 74.9017 17.8101 74.8264 17.8514L70.8517 19.9339C70.6552 20.0325 70.4327 20.0675 70.2147 20.0325C69.6835 19.9321 69.3291 19.426 69.4162 18.8922L70.2147 14.4779C70.2676 14.1558 70.1608 13.8283 69.9285 13.5995L66.6886 10.4593C66.4177 10.1964 66.3235 9.80161 66.4473 9.44542C66.5675 9.09012 66.8744 8.83083 67.2449 8.77251L71.7041 8.12562C72.0432 8.09062 72.3411 7.88426 72.4936 7.57921L74.4585 3.55072C74.5052 3.461 74.5653 3.37845 74.6379 3.30847L74.7187 3.24567C74.7609 3.19901 74.8093 3.16043 74.8631 3.12903L74.9609 3.09314L75.1135 3.03033H75.4912C75.8285 3.06533 76.1255 3.2672 76.2807 3.56866L78.2717 7.57921C78.4152 7.8726 78.6943 8.07627 79.0164 8.12562L83.4755 8.77251C83.8523 8.82634 84.1673 9.08653 84.292 9.44542C84.4095 9.8052 84.3081 10.2 84.0318 10.4593L80.6762 13.6354Z" fill="#FBBF24"/>
<path d="M102.209 13.6354C101.977 13.8606 101.87 14.1863 101.923 14.5057L102.721 18.92C102.788 19.2941 102.63 19.6728 102.317 19.889C102.01 20.1133 101.602 20.1402 101.267 19.9608L97.2936 17.8882C97.1554 17.8146 97.002 17.7752 96.845 17.7707H96.6018C96.5175 17.7832 96.4349 17.8101 96.3596 17.8514L92.3849 19.9339C92.1884 20.0325 91.9659 20.0675 91.7479 20.0325C91.2167 19.9321 90.8623 19.426 90.9494 18.8922L91.7479 14.4779C91.8008 14.1558 91.694 13.8283 91.4617 13.5995L88.2218 10.4593C87.9509 10.1964 87.8567 9.80161 87.9805 9.44542C88.1007 9.09012 88.4076 8.83083 88.7781 8.77251L93.2373 8.12562C93.5764 8.09062 93.8743 7.88426 94.0268 7.57921L95.9917 3.55072C96.0384 3.461 96.0985 3.37845 96.1712 3.30847L96.2519 3.24567C96.2941 3.19901 96.3425 3.16043 96.3963 3.12903L96.4941 3.09314L96.6467 3.03033H97.0244C97.3618 3.06533 97.6587 3.2672 97.8139 3.56866L99.8049 7.57921C99.9484 7.8726 100.227 8.07627 100.55 8.12562L105.009 8.77251C105.386 8.82634 105.7 9.08653 105.825 9.44542C105.943 9.8052 105.841 10.2 105.565 10.4593L102.209 13.6354Z" fill="#DDDDDD"/>
<path d="M117.531 16.1328V14.0737H113.467V12.7279C113.825 12.1357 114.157 11.5256 114.462 10.8976C114.767 10.2695 115.046 9.61006 115.297 8.91921C115.548 8.22835 115.763 7.50161 115.943 6.73898H117.665C117.549 7.2145 117.401 7.70348 117.221 8.20592C117.042 8.70836 116.845 9.19734 116.629 9.67287C116.414 10.1484 116.199 10.5925 115.983 11.0052C115.768 11.409 115.566 11.7634 115.378 12.0684C115.198 12.3645 115.055 12.5843 114.947 12.7279H117.531V10.3996C117.612 10.2291 117.692 10.0497 117.773 9.86128C117.854 9.6639 117.93 9.46651 118.002 9.26912C118.083 9.06276 118.154 8.86538 118.217 8.67696C118.28 8.47957 118.338 8.29116 118.392 8.11172H119.173V12.7279H120.317V14.0737H119.173V16.1328H117.531ZM121.974 16.1328V14.4102H123.683V16.1328H121.974ZM128.714 16.2943C128.068 16.2943 127.498 16.1732 127.005 15.9309C126.52 15.6887 126.144 15.3433 125.874 14.8947C125.605 14.4371 125.471 13.8943 125.471 13.2662H127.166C127.166 13.6072 127.229 13.9077 127.355 14.1679C127.48 14.4191 127.66 14.612 127.893 14.7466C128.126 14.8812 128.4 14.9485 128.714 14.9485C129.019 14.9485 129.284 14.8812 129.508 14.7466C129.732 14.612 129.907 14.4102 130.033 14.141C130.168 13.8629 130.235 13.5219 130.235 13.1182C130.235 12.7413 130.172 12.4318 130.046 12.1896C129.921 11.9383 129.746 11.7544 129.522 11.6378C129.297 11.5122 129.042 11.4494 128.754 11.4494C128.539 11.4494 128.342 11.4852 128.162 11.557C127.983 11.6288 127.826 11.723 127.691 11.8396C127.557 11.9473 127.44 12.0729 127.341 12.2165L125.78 12.0146L126.157 6.90048H131.46V8.39434H127.584L127.436 10.6688C127.561 10.5791 127.705 10.4938 127.866 10.4131C128.028 10.3323 128.216 10.265 128.431 10.2112C128.656 10.1574 128.911 10.1304 129.199 10.1304C129.71 10.1304 130.172 10.2381 130.585 10.4534C130.997 10.6688 131.325 10.9963 131.567 11.4359C131.809 11.8755 131.931 12.4363 131.931 13.1182C131.931 13.7911 131.8 14.3653 131.54 14.8408C131.28 15.3163 130.908 15.6797 130.423 15.9309C129.948 16.1732 129.378 16.2943 128.714 16.2943Z" fill="#221F3D"/>
</svg>
