<svg width="16" height="17" viewBox="0 0 16 17" fill="none" xmlns="http://www.w3.org/2000/svg">
<path d="M1.30025 13.8734C1.68405 12.9191 2.24101 12.0523 2.9401 11.3212C3.63708 10.5881 4.46271 10.0035 5.3714 9.59987C5.37954 9.5956 5.38768 9.59347 5.39582 9.5892C4.12829 8.62814 3.30429 7.06269 3.30429 5.29648C3.30429 2.3706 5.56265 0 8.35 0C11.1373 0 13.3957 2.3706 13.3957 5.29648C13.3957 7.06269 12.5717 8.62814 11.3042 9.59133C11.3123 9.5956 11.3205 9.59774 11.3286 9.60201C12.2401 10.0057 13.058 10.5844 13.7599 11.3234C14.4583 12.055 15.0152 12.9216 15.3998 13.8755C15.7775 14.8093 15.9813 15.8105 15.9999 16.8249C16.0005 16.8477 15.9967 16.8703 15.9887 16.8916C15.9808 16.9128 15.9689 16.9321 15.9537 16.9485C15.9386 16.9648 15.9204 16.9777 15.9004 16.9866C15.8804 16.9955 15.8589 17 15.8372 17H14.6164C14.5269 17 14.4557 16.9253 14.4537 16.8334C14.413 15.1847 13.7823 13.6406 12.6673 12.4702C11.5137 11.2593 9.98172 10.593 8.35 10.593C6.71828 10.593 5.18626 11.2593 4.03266 12.4702C2.91772 13.6406 2.28701 15.1847 2.24632 16.8334C2.24428 16.9274 2.17308 17 2.08355 17H0.862819C0.841097 17 0.819593 16.9955 0.799576 16.9866C0.779558 16.9777 0.761432 16.9648 0.746264 16.9485C0.731094 16.9321 0.719192 16.9128 0.711256 16.8916C0.70332 16.8703 0.699511 16.8477 0.700053 16.8249C0.720399 15.804 0.921821 14.8109 1.30025 13.8734ZM8.35 8.96985C9.28386 8.96985 10.1628 8.58756 10.824 7.89347C11.4853 7.19937 11.8494 6.27676 11.8494 5.29648C11.8494 4.31621 11.4853 3.39359 10.824 2.6995C10.1628 2.0054 9.28386 1.62312 8.35 1.62312C7.41614 1.62312 6.53721 2.0054 5.87598 2.6995C5.21474 3.39359 4.85056 4.31621 4.85056 5.29648C4.85056 6.27676 5.21474 7.19937 5.87598 7.89347C6.53721 8.58756 7.41614 8.96985 8.35 8.96985Z" fill="#0172B6"/>
</svg>
