<svg width="17" height="11" viewBox="0 0 17 11" fill="none" xmlns="http://www.w3.org/2000/svg">
<path d="M11.3422 5.48805L15.5745 1.811V9.12313L11.3422 5.48805ZM5.88851 6.11075L7.37474 7.40089C7.608 7.59905 7.91212 7.71878 8.24446 7.71878H8.25616H8.25547H8.2651C8.59813 7.71878 8.90226 7.59836 9.13827 7.39882L9.1362 7.4002L10.6224 6.11007L15.1403 9.9901H1.3727L5.88851 6.11075ZM1.36651 0.939216H15.1486L8.52864 6.68873C8.4542 6.74761 8.36207 6.77961 8.26717 6.77956H8.25754H8.25822H8.24859C8.15335 6.77968 8.06091 6.74741 7.98644 6.68805L7.98712 6.68873L1.36651 0.939216ZM0.939216 1.81031L5.17085 5.48736L0.939216 9.12037V1.81031ZM15.8015 0.130733C15.6364 0.048165 15.4424 0 15.2366 0H1.27912C1.07969 4.76386e-05 0.883005 0.0464521 0.704584 0.13555L0.712153 0.132109C0.498558 0.237461 0.318678 0.400442 0.192835 0.602643C0.066991 0.804844 0.000197716 1.03821 0 1.27637L0 9.65157C0.000364267 9.99052 0.135173 10.3155 0.374847 10.5552C0.614522 10.7948 0.939485 10.9296 1.27844 10.93H15.2346C15.5735 10.9296 15.8985 10.7948 16.1382 10.5552C16.3778 10.3155 16.5126 9.99052 16.513 9.65157V1.27912V1.27637C16.513 0.776144 16.2247 0.342659 15.805 0.134174L15.7974 0.130733H15.8015Z" fill="#0172B6"/>
</svg>
