<svg width="21" height="25" viewBox="0 0 21 25" fill="none" xmlns="http://www.w3.org/2000/svg">
<path d="M20.1977 8.50625C19.0165 3.30875 14.4827 0.96875 10.5002 0.96875C10.5002 0.96875 10.5002 0.96875 10.489 0.96875C6.51773 0.96875 1.97273 3.2975 0.791479 8.495C-0.524771 14.3 3.03023 19.2162 6.24773 22.31C7.44023 23.4575 8.97023 24.0312 10.5002 24.0312C12.0302 24.0312 13.5602 23.4575 14.7415 22.31C17.959 19.2162 21.514 14.3112 20.1977 8.50625ZM10.5002 14.1425C8.54273 14.1425 6.95648 12.5563 6.95648 10.5988C6.95648 8.64125 8.54273 7.055 10.5002 7.055C12.4577 7.055 14.044 8.64125 14.044 10.5988C14.044 12.5563 12.4577 14.1425 10.5002 14.1425Z" fill="#0072B5"/>
</svg>
